{"title":"PROMETHEUS 3D (2012).mkv","uid":7791705,"size":12548816254,"categoryP":"video","categoryS":"3d","magnet":"?xt=urn:btih:45bb1d71f5d85d6d0e8f69c1dd063c84363e52e5&amp;dn=PROMETHEUS+3D+%282012%29.mkv&amp;tr=udp%3A%2F%2Ftracker.openbittorrent.com%3A80&amp;tr=udp%3A%2F%2Fopen.demonii.com%3A1337&amp;tr=udp%3A%2F%2Ftracker.coppersurfer.tk%3A6969&amp;tr=udp%3A%2F%2Fexodus.desync.com%3A6969","seeders":0,"leechers":1,"uploader":"Beebe85","files":-1,"time":1352040967,"description":"Prometheus 3D - (2012) 3D Blu ray rip 3DTV Active Shutter (side by side)1920x800\n\n &lt;a href=&quot;\nhttp://www.imdb.com/title/tt1446714/&quot; rel=&quot;nofollow&quot; target=&quot;_NEW&quot;&gt;\nhttp://www.imdb.com/title/tt1446714/&lt;/a&gt;\n\n\nVideo\nID                             : 1\nFormat                         : AVC\nFormat/Info                    : Advanced Video Codec\nFormat profile                 : &lt;a class=&quot;__cf_email__&quot; href=&quot;/cdn-cgi/l/email-protection&quot; data-cfemail=&quot;b3fbdad4dbf3ff869d82&quot;&gt;[email&amp;#160;protected]&lt;/a&gt;&lt;script cf-hash='f9e31' type=&quot;text/javascript&quot;&gt;\n/* &lt;![CDATA[ */!function(){try{var t=&quot;currentScript&quot;in document?document.currentScript:function(){for(var t=document.getElementsByTagName(&quot;script&quot;),e=t.length;e--;)if(t[e].getAttribute(&quot;cf-hash&quot;))return t[e]}();if(t&amp;&amp;t.previousSibling){var e,r,n,i,c=t.previousSibling,a=c.getAttribute(&quot;data-cfemail&quot;);if(a){for(e=&quot;&quot;,r=parseInt(a.substr(0,2),16),n=2;a.length-n;n+=2)i=parseInt(a.substr(n,2),16)^r,e+=String.fromCharCode(i);e=document.createTextNode(e),c.parentNode.replaceChild(e,c)}}}catch(u){}}();/* ]]&gt; */&lt;/script&gt;\nFormat settings, CABAC         : Yes\nFormat settings, ReFrames      : 2 frames\nFormat settings, GOP           : M=3, N=15\nCodec ID                       : V_MPEG4/ISO/AVC\nDuration                       : 2h 3mn\nBit rate mode                  : Variable\nBit rate                       : 12.6 Mbps\nMaximum bit rate               : 19.3 Mbps\nWidth                          : 1920 pixels\nHeight                         : 800 pixels\nDisplay aspect ratio           : 2.40:1\nFrame rate                     : 23.976 fps\nColor space                    : YUV\nChroma subsampling             : 4:2:0\nBit depth                      : 8 bits\nScan type                      : Progressive\nBits/(Pixel*Frame)             : 0.342\nStream size                    : 10.9 GiB (93%)\nDefault                        : Yes\nForced                         : No\n\nAudio\nID                             : 2\nFormat                         : AC-3\nFormat/Info                    : Audio Coding 3\nMode extension                 : CM (complete main)\nCodec ID                       : A_AC3\nDuration                       : 2h 3mn\nBit rate mode                  : Constant\nBit rate                       : 640 Kbps\nChannel(s)                     : 6 channels\nChannel positions              : Front: L C R, Side: L R, LFE\nSampling rate                  : 48.0 KHz\nBit depth                      : 16 bits\nCompression mode               : Lossy\nStream size                    : 567 MiB (5%)\nDefault                        : Yes\nForced                         : No\n\n \n \n \n \n\n","torrent":{"xt":"urn:btih:45bb1d71f5d85d6d0e8f69c1dd063c84363e52e5","amp;dn":"PROMETHEUS+3D+%282012%29.mkv","amp;tr":["udp%3A%2F%2Ftracker.openbittorrent.com%3A80","udp%3A%2F%2Fopen.demonii.com%3A1337","udp%3A%2F%2Ftracker.coppersurfer.tk%3A6969","udp%3A%2F%2Fexodus.desync.com%3A6969"],"infoHash":"45bb1d71f5d85d6d0e8f69c1dd063c84363e52e5","infoHashBuffer":{"type":"Buffer","data":[69,187,29,113,245,216,93,109,14,143,105,193,221,6,60,132,54,62,82,229]},"announce":[],"urlList":[]}}